<?xml version="1.0" encoding="UTF-8" standalone="no"?>
<!-- Created with Inkscape (http://www.inkscape.org/) -->

<svg
   xmlns:dc="http://purl.org/dc/elements/1.1/"
   xmlns:cc="http://creativecommons.org/ns#"
   xmlns:rdf="http://www.w3.org/1999/02/22-rdf-syntax-ns#"
   xmlns:svg="http://www.w3.org/2000/svg"
   xmlns="http://www.w3.org/2000/svg"
   xmlns:sodipodi="http://sodipodi.sourceforge.net/DTD/sodipodi-0.dtd"
   xmlns:inkscape="http://www.inkscape.org/namespaces/inkscape"
   width="51.814236mm"
   height="12.417778mm"
   viewBox="0 0 183.59375 44.000001"
   id="svg2"
   version="1.1"
   inkscape:version="0.91 r13725"
   sodipodi:docname="flossdesign.svg">
  <defs
     id="defs4" />
  <sodipodi:namedview
     id="base"
     pagecolor="#ffffff"
     bordercolor="#666666"
     borderopacity="1.0"
     inkscape:pageopacity="0.0"
     inkscape:pageshadow="2"
     inkscape:zoom="3.959798"
     inkscape:cx="61.070789"
     inkscape:cy="3.4046953"
     inkscape:document-units="px"
     inkscape:current-layer="layer1"
     showgrid="false"
     showborder="true"
     inkscape:window-width="1680"
     inkscape:window-height="1021"
     inkscape:window-x="1680"
     inkscape:window-y="0"
     inkscape:window-maximized="1"
     fit-margin-top="0"
     fit-margin-left="0"
     fit-margin-right="0"
     fit-margin-bottom="0" />
  <metadata
     id="metadata7">
    <rdf:RDF>
      <cc:Work
         rdf:about="">
        <dc:format>image/svg+xml</dc:format>
        <dc:type
           rdf:resource="http://purl.org/dc/dcmitype/StillImage" />
        <dc:title></dc:title>
      </cc:Work>
    </rdf:RDF>
  </metadata>
  <g
     inkscape:label="Layer 1"
     inkscape:groupmode="layer"
     id="layer1"
     transform="translate(463.1543,-347.21777)">
    <g
       id="g4189">
      <path
         id="rect4142"
         d="m -379.36133,347.21777 c -1.3715,0 -2.47656,0.91147 -2.47656,2.04371 l 0,39.91259 c 0,1.13224 1.10506,2.0437 2.47656,2.0437 l 97.32617,0 c 1.3715,0 2.47461,-0.91146 2.47461,-2.0437 l 0,-39.91259 c 0,-1.13224 -1.10311,-2.04371 -2.47461,-2.04371 l -97.32617,0 z m 14.73828,4.37428 0.20117,0.0811 0,22.97338 c 0,0.94542 0.10503,1.56654 0.31836,1.86367 0.24,0.29714 0.72141,0.44712 1.44141,0.44712 0.13333,0 0.43992,-0.0146 0.91992,-0.0415 l 0,0.64893 -5.88086,2.10701 -0.16015,-0.12266 0,-2.59173 c -1.28,1.80981 -2.98581,2.71439 -5.11914,2.71439 -2.21334,0 -4.00133,-0.7982 -5.36133,-2.3919 -1.36,-1.62072 -2.03906,-3.72592 -2.03906,-6.31907 0,-2.86327 0.81278,-5.29554 2.43945,-7.29443 1.62667,-2.0259 3.58752,-3.03885 5.88086,-3.03885 1.44,0 2.83922,0.58148 4.19922,1.74299 l 0,-6.32104 c 0,-0.83737 -0.11938,-1.39175 -0.35938,-1.66187 -0.24,-0.27012 -0.7338,-0.40558 -1.48047,-0.40558 -0.37333,0 -0.66557,0.0145 -0.8789,0.0415 l 0,-0.64892 c 2.42666,-0.64829 4.38557,-1.24231 5.8789,-1.78256 z m 39.37696,0 c 0.58666,0 1.08047,0.2022 1.48047,0.60738 0.39999,0.40518 0.5996,0.89282 0.5996,1.46007 0,0.59427 -0.19961,1.09248 -0.5996,1.49766 -0.4,0.37817 -0.89381,0.56781 -1.48047,0.56781 -0.56,0 -1.03946,-0.2022 -1.43946,-0.60738 -0.37333,-0.40518 -0.56054,-0.89084 -0.56054,-1.45809 0,-0.56725 0.20156,-1.05489 0.60156,-1.46007 0.4,-0.40518 0.8651,-0.60738 1.39844,-0.60738 z m -27.16602,9.03543 c 2.02667,0 3.6007,0.62112 4.7207,1.86368 1.12,1.21554 1.82581,3.06633 2.11914,5.55144 l -12.31835,0 c 0.0533,1.70175 0.27968,3.17327 0.67968,4.41582 0.4,1.21554 0.9186,2.13466 1.5586,2.75594 0.64,0.59426 1.27992,1.02574 1.91992,1.29586 0.66666,0.24311 1.36008,0.36601 2.08008,0.36601 1.28,0 2.38698,-0.3251 3.32031,-0.97339 0.96,-0.64829 1.92086,-1.7425 2.88086,-3.28219 l 0.63867,0.28489 c -0.82667,2.18798 -1.97279,3.86169 -3.43945,5.0232 -1.46667,1.16152 -3.14573,1.74299 -5.03907,1.74299 -2.29333,0 -4.12046,-0.81075 -5.48046,-2.43147 -1.33334,-1.64773 -2,-3.86327 -2,-6.64551 0,-2.99833 0.77364,-5.40153 2.32031,-7.21133 1.57333,-1.83682 3.58573,-2.75593 6.03906,-2.75594 z m 29.04688,0 0.16015,0.12267 0,14.38309 c 0,1.45865 0.16047,2.39032 0.48047,2.7955 0.34667,0.37818 1.17185,0.62199 2.47852,0.73004 l 0,0.60738 -9.47852,0 0,-0.60738 c 1.38667,-0.081 2.25294,-0.32486 2.59961,-0.73004 0.37333,-0.40518 0.56055,-1.33685 0.56055,-2.7955 l 0,-9.39946 c 0,-0.8914 -0.10698,-1.51252 -0.32032,-1.86366 -0.18666,-0.35116 -0.52,-0.52825 -1,-0.52825 -0.58666,0 -1.14635,0.0416 -1.67968,0.12267 l 0,-0.60737 c 1.86666,-0.54025 3.93255,-1.28426 6.19922,-2.22969 z m 11.84179,0 c 1.04,0 2.14698,0.22929 3.32032,0.68849 1.19999,0.4322 2.18565,0.64893 2.95898,0.64893 l 3.08008,0 0,1.58075 -3.32032,0 c 0.50667,1.16152 0.76172,2.29539 0.76172,3.40288 0,1.86383 -0.62752,3.37697 -1.88086,4.53849 -1.22666,1.16151 -2.67937,1.74101 -4.35937,1.74101 -0.32,0 -1.08125,-0.0668 -2.28125,-0.2018 -0.53333,0.16207 -1.06628,0.52681 -1.59961,1.09406 -0.53333,0.56726 -0.79883,1.05291 -0.79883,1.45809 0,0.64829 1.03914,1.01304 3.11914,1.09407 l 5.16016,0.24334 c 1.46667,0.054 2.63953,0.47295 3.51953,1.2563 0.88,0.78335 1.32031,1.80886 1.32031,3.07842 0,1.94486 -1.10698,3.56637 -3.32031,4.86295 -2.18667,1.32359 -4.54674,1.98633 -7.08008,1.98633 -1.89333,0 -3.5189,-0.39183 -4.8789,-1.17518 -1.36,-0.75633 -2.04102,-1.67545 -2.04102,-2.75594 0,-0.75634 0.29419,-1.51291 0.88086,-2.26925 0.61333,-0.72931 1.62573,-1.62134 3.03906,-2.67481 -0.82666,-0.40518 -1.38635,-0.75539 -1.67969,-1.05252 -0.29333,-0.29714 -0.43945,-0.66187 -0.43945,-1.09406 0,-0.51323 0.17287,-0.98633 0.51953,-1.41853 0.37334,-0.43219 1.38573,-1.43061 3.03906,-2.99731 -1.33333,-0.67529 -2.29223,-1.43186 -2.8789,-2.26924 -0.56,-0.83737 -0.83985,-1.89194 -0.83984,-3.1615 0,-1.83683 0.63992,-3.38962 1.91992,-4.65918 1.30666,-1.29657 2.8931,-1.94479 4.75976,-1.94479 z m 15.67188,0 0.27929,0.0811 0,3.20108 c 1.36,-1.29657 2.42784,-2.16151 3.20118,-2.59371 0.8,-0.4592 1.66627,-0.68849 2.59961,-0.68849 1.46666,0 2.61278,0.53985 3.43945,1.62033 0.85333,1.05346 1.28125,2.53952 1.28125,4.45737 l 0,9.27878 c 0,0.99945 0.15851,1.67474 0.47851,2.0259 0.32,0.32414 0.97428,0.54087 1.96094,0.64893 l 0,0.60737 -8.32031,0 0,-0.60737 c 1.01333,-0.081 1.68,-0.35195 2,-0.81116 0.34667,-0.45921 0.51953,-1.32414 0.51953,-2.5937 l 0,-8.46763 c 0,-2.62016 -0.97325,-3.92913 -2.91992,-3.92913 -0.66667,0 -1.27984,0.16056 -1.83985,0.4847 -0.55999,0.29714 -1.31929,0.9057 -2.27929,1.8241 l 0,11.3858 c 0,0.72932 0.18721,1.24208 0.56055,1.53921 0.37333,0.29712 1.06479,0.48677 2.07812,0.56781 l 0,0.60737 -8.47852,0 0,-0.60737 c 1.01334,-0.081 1.68,-0.31033 2,-0.6885 0.32,-0.40518 0.47852,-1.18885 0.47852,-2.35035 l 0,-10.04839 c 0,-0.99944 -0.10503,-1.67474 -0.31836,-2.0259 -0.21333,-0.37817 -0.60016,-0.5678 -1.16016,-0.5678 -0.50666,0 -0.86674,0.0542 -1.08007,0.16222 l 0,-0.68848 c 1.97333,-0.59427 3.81286,-1.20283 5.51953,-1.82411 z m -41.73633,0.0415 c 0.88,0 1.70713,0.13348 2.48047,0.4036 0.77333,0.24311 1.24039,0.36601 1.40039,0.36601 0.0267,0 0.23867,-0.13546 0.63867,-0.40557 l 0.44141,0 0.1582,5.50988 -0.59961,0 c -0.45333,-1.8098 -1.01302,-3.09168 -1.67969,-3.84802 -0.66666,-0.75634 -1.57403,-1.13561 -2.7207,-1.13561 -0.90667,0 -1.65161,0.25638 -2.23828,0.7696 -0.56,0.51323 -0.83984,1.17598 -0.83985,1.98634 0,1.16151 0.57209,2.07865 1.71876,2.75395 l 4.32031,2.59371 c 1.2,0.72932 2.05388,1.47334 2.56054,2.22967 0.53334,0.72933 0.79883,1.59229 0.79883,2.59173 0,1.40462 -0.55969,2.61977 -1.67968,3.64622 -1.09334,1.02646 -2.41232,1.54119 -3.95899,1.54119 -0.66667,0 -1.56164,-0.1229 -2.68164,-0.366 -1.12,-0.24311 -1.81146,-0.36404 -2.07813,-0.36404 -0.4,0 -0.70854,0.16255 -0.92187,0.48669 l -0.51953,0 0,-6.32104 0.64062,0 c 0.42667,1.89084 0.93287,3.22691 1.51954,4.01025 0.85333,1.1075 2.04054,1.66188 3.56054,1.66188 1.01334,0 1.81373,-0.25638 2.40039,-0.76961 0.61334,-0.54024 0.91992,-1.25519 0.91992,-2.14658 0,-1.21554 -0.69341,-2.22849 -2.08007,-3.03885 l -2.32032,-1.33741 c -1.70666,-0.97243 -2.92062,-1.90411 -3.64062,-2.79551 -0.69333,-0.89139 -1.03906,-1.90434 -1.03906,-3.03885 0,-1.45864 0.50619,-2.64868 1.51953,-3.56708 1.04,-0.94543 2.34659,-1.41655 3.91992,-1.41655 z m -34.27539,1.09407 c -1.52,0 -2.73201,0.68785 -3.63867,2.06546 -0.90667,1.37762 -1.36133,3.21388 -1.36133,5.50989 0,2.48511 0.5062,4.48392 1.51953,5.99659 1.01333,1.48566 2.34667,2.22968 4,2.22968 1.01333,0 1.85482,-0.28348 2.52148,-0.85073 0.69334,-0.59425 1.03907,-1.12155 1.03907,-1.58075 l 0,-9.31834 c 0,-1.08049 -0.41357,-2.02669 -1.24024,-2.83705 -0.82666,-0.81036 -1.77317,-1.21475 -2.83984,-1.21475 z m 59.93945,0 c -0.93333,0 -1.66588,0.33765 -2.19922,1.01295 -0.50666,0.6753 -0.75976,1.60697 -0.75976,2.7955 0,2.32303 0.42596,4.01128 1.27929,5.06474 0.85334,1.05347 1.78745,1.57879 2.80079,1.57879 0.93333,0 1.66588,-0.32312 2.19921,-0.97141 0.53334,-0.67529 0.80079,-1.57988 0.80079,-2.71438 0,-0.45921 -0.0535,-1.01359 -0.16016,-1.66188 -0.10667,-0.64829 -0.29388,-1.37777 -0.56055,-2.18813 -0.26666,-0.83737 -0.69263,-1.52522 -1.27929,-2.06547 -0.58667,-0.56725 -1.29443,-0.85071 -2.1211,-0.85071 z m -41.64844,0.32248 c -2.4,0 -3.81356,1.55477 -4.24023,4.66115 l 8.16016,0 c -0.26667,-1.75578 -0.67828,-2.97291 -1.23828,-3.6482 -0.56001,-0.6753 -1.45498,-1.01295 -2.68165,-1.01295 z m 38.48829,17.26169 c -0.82667,0.99944 -1.35961,1.71439 -1.59961,2.14658 -0.24,0.43219 -0.35938,0.87821 -0.35938,1.33742 0,0.89139 0.53294,1.60832 1.59961,2.14855 1.06667,0.54024 2.48023,0.80918 4.24024,0.80918 2.26666,0 4.0938,-0.36475 5.48046,-1.09407 1.38667,-0.72932 2.08008,-1.67355 2.08008,-2.83507 0,-0.72933 -0.37443,-1.24406 -1.12109,-1.54119 -0.74667,-0.29713 -2.02651,-0.44515 -3.83985,-0.44515 -2.69333,0 -4.8538,-0.17509 -6.48046,-0.52625 z"
         style="fill:#437f97;fill-opacity:1"
         inkscape:connector-curvature="0" />
      <path
         id="rect4140"
         d="m -461.38867,347.21777 c -0.97868,0 -1.76563,0.91143 -1.76563,2.04366 l 0,39.91268 c 0,1.13224 0.78695,2.04366 1.76563,2.04366 l 69.45117,0 c 0.97868,0 1.76562,-0.91142 1.76562,-2.04366 l 0,-39.91268 c 0,-1.13223 -0.78694,-2.04366 -1.76562,-2.04366 l -69.45117,0 z m 10.9414,4.55011 c 0.85334,0 1.76071,0.17211 2.72071,0.51724 0.96,0.31858 1.53208,0.47834 1.71875,0.47834 0.24,0 0.7338,-0.15976 1.48047,-0.47834 0.77333,-0.31859 1.25278,-0.49069 1.43945,-0.51724 l 0.20117,0.0797 0,23.89394 c 0,1.0354 0.14612,1.71341 0.43945,2.032 0.32,0.31858 1.02581,0.51731 2.11915,0.59696 l 0,0.59696 -8.59961,0 0,-0.59696 c 1.04,-0.0797 1.74776,-0.30501 2.12109,-0.67669 0.37333,-0.39823 0.55859,-1.08858 0.55859,-2.07089 l 0,-13.30228 -7.51953,0 0,13.50062 c 0,0.90267 0.18722,1.52741 0.56055,1.87255 0.37333,0.31859 1.13263,0.54394 2.2793,0.67669 l 0,0.59696 -8.95899,0 0,-0.59696 c 1.17333,-0.0797 1.92024,-0.33163 2.24024,-0.75642 0.34666,-0.42478 0.51953,-1.36711 0.51953,-2.82729 l 0,-12.46615 -2.75977,0 0,-1.27364 2.83984,0 c 0.08,-1.75222 0.24047,-3.10629 0.48047,-4.06205 0.26667,-0.95575 0.69263,-1.85911 1.2793,-2.70868 1.2,-1.67258 2.81318,-2.5084 4.83984,-2.5084 z m -0.7207,1.07531 c -1.73333,0 -2.59961,2.04441 -2.59961,6.13294 l 0,2.07088 7.51953,0 0,-5.6157 c -0.18666,0.18585 -0.39867,0.28001 -0.63867,0.28001 -0.53333,0 -0.98799,-0.14742 -1.36133,-0.43946 -0.37333,-0.29203 -0.63883,-0.62389 -0.79883,-0.99558 -0.16,-0.37168 -0.42744,-0.70354 -0.80078,-0.99558 -0.34666,-0.29204 -0.78698,-0.43751 -1.32031,-0.43751 z m 20.7207,7.80519 c 2.56,0 4.66698,0.85012 6.32032,2.54924 1.65333,1.69913 2.48047,3.85005 2.48047,6.45183 0,2.76107 -0.85388,5.06981 -2.56055,6.92823 -1.70667,1.85842 -3.81365,2.78841 -6.32031,2.78841 -2.50667,0 -4.5993,-0.88908 -6.2793,-2.66785 -1.65333,-1.80532 -2.48047,-4.05041 -2.48047,-6.73184 0,-2.73453 0.81279,-4.96339 2.43945,-6.68906 1.65334,-1.75222 3.78706,-2.62896 6.40039,-2.62896 z m 16.60938,0.0408 c 0.88,0 1.70713,0.13119 2.48047,0.39668 0.77333,0.23894 1.24039,0.35973 1.40039,0.35973 0.0267,0 0.23867,-0.13313 0.63867,-0.39862 l 0.44141,0 0.1582,5.41542 -0.59961,0 c -0.45333,-1.77878 -1.01302,-3.03868 -1.67969,-3.78205 -0.66666,-0.74337 -1.57403,-1.11613 -2.7207,-1.11613 -0.90667,0 -1.65161,0.25198 -2.23828,0.7564 -0.56,0.50443 -0.83984,1.15581 -0.83985,1.95227 0,1.14161 0.57209,2.04302 1.71876,2.70674 l 4.32031,2.54923 c 1.2,0.71682 2.05388,1.44808 2.56054,2.19145 0.53334,0.71681 0.79883,1.56498 0.79883,2.54728 0,1.38054 -0.55969,2.57485 -1.67968,3.5837 -1.09334,1.00886 -2.41232,1.51477 -3.95899,1.51477 -0.66667,0 -1.56164,-0.1208 -2.68164,-0.35974 -1.12,-0.23893 -1.81146,-0.35779 -2.07813,-0.35779 -0.4,0 -0.70854,0.15976 -0.92187,0.47835 l -0.51953,0 0,-6.21265 0.64062,0 c 0.42667,1.85841 0.93287,3.17157 1.51954,3.94148 0.85333,1.08851 2.04054,1.63338 3.56054,1.63338 1.01334,0 1.81373,-0.25198 2.40039,-0.75641 0.61334,-0.53097 0.91992,-1.23367 0.91992,-2.10978 0,-1.19469 -0.69341,-2.19027 -2.08007,-2.98674 l -2.32032,-1.31447 c -1.70666,-0.95576 -2.92062,-1.87147 -3.64062,-2.74758 -0.69333,-0.87611 -1.03906,-1.87169 -1.03906,-2.98674 0,-1.43364 0.50619,-2.60326 1.51953,-3.50592 1.04,-0.92921 2.34659,-1.39226 3.91992,-1.39226 z m 14.6875,0 c 0.88,0 1.70713,0.13119 2.48047,0.39668 0.77333,0.23894 1.24039,0.35973 1.40039,0.35973 0.0267,0 0.23867,-0.13313 0.63867,-0.39862 l 0.44141,0 0.1582,5.41542 -0.59961,0 c -0.45333,-1.77878 -1.01302,-3.03868 -1.67969,-3.78205 -0.66666,-0.74337 -1.57403,-1.11613 -2.7207,-1.11613 -0.90667,0 -1.65161,0.25198 -2.23828,0.7564 -0.56,0.50443 -0.83984,1.15581 -0.83985,1.95227 0,1.14161 0.57209,2.04302 1.71876,2.70674 l 4.32031,2.54923 c 1.2,0.71682 2.05388,1.44808 2.56054,2.19145 0.53334,0.71681 0.79883,1.56498 0.79883,2.54728 0,1.38054 -0.55969,2.57485 -1.67968,3.5837 -1.09334,1.00886 -2.41232,1.51477 -3.95899,1.51477 -0.66667,0 -1.56164,-0.1208 -2.68164,-0.35974 -1.12,-0.23893 -1.81146,-0.35779 -2.07813,-0.35779 -0.4,0 -0.70854,0.15976 -0.92187,0.47835 l -0.51953,0 0,-6.21265 0.64062,0 c 0.42667,1.85841 0.93287,3.17157 1.51954,3.94148 0.85333,1.08851 2.04054,1.63338 3.56054,1.63338 1.01334,0 1.81373,-0.25198 2.40039,-0.75641 0.61334,-0.53097 0.91992,-1.23367 0.91992,-2.10978 0,-1.19469 -0.69341,-2.19027 -2.08007,-2.98674 l -2.32032,-1.31447 c -1.70666,-0.95576 -2.92062,-1.87147 -3.64062,-2.74758 -0.69333,-0.87611 -1.03906,-1.87169 -1.03906,-2.98674 0,-1.43364 0.50619,-2.60326 1.51953,-3.50592 1.04,-0.92921 2.34659,-1.39226 3.91992,-1.39226 z m -31.81641,1.07531 c -1.41333,0 -2.55945,0.56955 -3.43945,1.71115 -0.85333,1.14161 -1.28125,2.65543 -1.28125,4.5404 0,2.84072 0.52055,5.25596 1.56055,7.24712 1.04,1.99116 2.40007,2.98674 4.08007,2.98674 1.49334,0 2.6662,-0.63709 3.51954,-1.91143 0.85333,-1.27435 1.27929,-3.04016 1.27929,-5.2968 0,-2.73453 -0.53294,-4.96339 -1.59961,-6.68906 -1.06666,-1.72568 -2.43914,-2.58812 -4.11914,-2.58812 z"
         style="fill:#437f97;fill-opacity:1"
         inkscape:connector-curvature="0" />
      <g
         id="text4136"
         style="font-style:normal;font-weight:normal;font-size:40px;line-height:125%;font-family:sans-serif;letter-spacing:0px;word-spacing:0px;fill:#437f97;fill-opacity:1;stroke:none;stroke-width:1px;stroke-linecap:butt;stroke-linejoin:miter;stroke-opacity:1">
        <path
           id="path4153"
           style="font-style:normal;font-variant:normal;font-weight:normal;font-stretch:normal;font-family:FreeSerif;-inkscape-font-specification:FreeSerif;letter-spacing:0px;fill:#437f97;fill-opacity:1"
           d="m -386.3028,375.16586 q 0.92,0 1.56,0.68 0.68,0.68 0.68,1.6 0,0.88 -0.68,1.52 -0.68,0.64 -1.6,0.64 -0.88,0 -1.52,-0.64 -0.64,-0.64 -0.64,-1.52 0,-0.92 0.64,-1.6 0.68,-0.68 1.56,-0.68 z"
           inkscape:connector-curvature="0" />
      </g>
    </g>
  </g>
</svg>
